<svg xmlns="http://www.w3.org/2000/svg" width="15.21" height="15.21" viewBox="96.433 6.933 15.21 15.21"><g data-name="グループ 342"><g data-name="グループ 341" transform="translate(96.433 6.933)" clip-path="url(&quot;#a&quot;)"><path d="M3.802 1.521a2.281 2.281 0 0 0-2.281 2.281v7.605a2.281 2.281 0 0 0 2.281 2.282h7.605a2.281 2.281 0 0 0 2.282-2.282V6.844a.76.76 0 0 1 1.52 0v4.563c0 2.1-1.702 3.803-3.802 3.803H3.802A3.802 3.802 0 0 1 0 11.407V3.802C0 1.702 1.702 0 3.802 0h4.563a.76.76 0 0 1 0 1.521H3.802Z" fill="#fff" fill-rule="evenodd" data-name="パス 742"/><path d="M13.078 1.521a.61.61 0 0 0-.431.179l-5.99 5.99-.288 1.151 1.15-.288 5.99-5.99a.61.61 0 0 0-.43-1.042M11.57.624a2.131 2.131 0 1 1 3.014 3.014l-6.139 6.14a.76.76 0 0 1-.353.2l-2.585.646a.76.76 0 0 1-.922-.922l.646-2.585a.76.76 0 0 1 .2-.353l6.14-6.14Z" fill="#fff" fill-rule="evenodd" data-name="パス 743"/><path d="M10.109 2.504a.76.76 0 0 1 1.075 0l1.521 1.521a.76.76 0 1 1-1.075 1.076L10.109 3.58a.76.76 0 0 1 0-1.076Z" fill="#fff" fill-rule="evenodd" data-name="パス 744"/></g></g><defs><clipPath id="a"><path d="M0 0h15.21v15.21H0V0z" data-name="長方形 1348"/></clipPath></defs></svg>