<svg xmlns="http://www.w3.org/2000/svg" width="13" height="20.26" viewBox="9.125 4 13 20.26"><path d="m11.363 10.818 3.03-2.2c.34-.25.754-.377 1.175-.364a2.473 2.473 0 0 1 2.295 1.72c.176.552.336.924.482 1.118a4.719 4.719 0 0 0 3.78 1.89v1.89a6.605 6.605 0 0 1-5.107-2.408l-.66 3.74 1.949 1.635 2.102 5.774-1.778.647-1.928-5.298-3.205-2.69a1.89 1.89 0 0 1-.674-1.8l.481-2.727-.64.465-2.01 2.768-1.53-1.112 2.222-3.06Zm5.562-3.036a1.89 1.89 0 1 1 0-3.782 1.89 1.89 0 0 1 0 3.782Zm-2.81 12.46-3.038 3.622-1.449-1.215 2.814-3.353.705-2.06 1.693 1.417-.725 1.59Z" fill="#fff" fill-rule="evenodd" data-name="walking"/></svg>